<svg width="200" height="48" viewBox="0 0 200 48" fill="none" xmlns="http://www.w3.org/2000/svg">
<path d="M13.5047 21.2556C14.0145 20.5195 14.2694 19.6235 14.2694 18.5676C14.2694 17.5116 14.0205 16.6247 13.5212 15.8644C13.0219 15.1041 12.3145 14.5188 11.3958 14.11C10.4772 13.7012 9.38805 13.4961 8.12697 13.4961H1.16992V28.7271H5.23976V23.5138H7.32446L10.4032 28.7271H14.8442L11.3506 22.9285C12.2783 22.5454 12.9963 21.9872 13.5031 21.2556H13.5047ZM5.23976 16.4617H7.24602C7.85394 16.4617 8.36681 16.5402 8.78466 16.6956C9.201 16.8524 9.51627 17.0847 9.73047 17.3955C9.94467 17.7047 10.0518 18.0954 10.0518 18.5676C10.0518 19.0397 9.94467 19.4244 9.73047 19.7246C9.51627 20.0247 9.20251 20.248 8.78919 20.3943C8.37586 20.5406 7.86148 20.613 7.24753 20.613H5.24127V16.4632L5.23976 16.4617Z" fill="#363636"/>
<path d="M16.498 28.7261H28.2399V25.7363H20.5679V22.6063H27.6396V19.6089H20.5679V16.4849H28.2399V13.4951H16.498V28.7261Z" fill="#363636"/>
<path d="M42.6857 21.3555C42.2498 20.9783 41.7128 20.654 41.0732 20.381C40.4336 20.108 39.699 19.8907 38.8648 19.7263L37.4167 19.4291C37.0335 19.3552 36.6881 19.2677 36.3803 19.1682C36.0726 19.0686 35.8117 18.954 35.5944 18.8227C35.3772 18.6915 35.2128 18.5391 35.1012 18.3657C34.988 18.1922 34.9382 17.9916 34.9488 17.7638C34.9548 17.4862 35.0454 17.2388 35.2203 17.0231C35.3953 16.8074 35.6593 16.637 36.0093 16.5133C36.3607 16.3896 36.7982 16.3277 37.3246 16.3277C38.1196 16.3277 38.732 16.4801 39.162 16.7848C39.5919 17.0895 39.8347 17.5149 39.889 18.061H43.7869C43.7764 17.1136 43.5048 16.281 42.9723 15.5614C42.4399 14.8419 41.6932 14.2838 40.7323 13.884C39.7699 13.4843 38.637 13.2852 37.3322 13.2852C36.0274 13.2852 34.9171 13.4843 33.92 13.881C32.9229 14.2777 32.1416 14.8298 31.5759 15.5388C31.0117 16.2478 30.7311 17.0744 30.7372 18.0157C30.7311 19.1712 31.149 20.0868 31.9877 20.7641C32.8264 21.4414 33.9743 21.9302 35.433 22.2334L37.1934 22.6045C37.8074 22.7342 38.3127 22.873 38.7109 23.0253C39.1092 23.1762 39.4033 23.3557 39.5949 23.5608C39.7865 23.7675 39.8845 24.0134 39.8905 24.3015C39.8845 24.6092 39.7774 24.8822 39.5708 25.1191C39.3626 25.3574 39.0654 25.543 38.6777 25.6772C38.2916 25.8115 37.8239 25.8778 37.2764 25.8778C36.679 25.8778 36.1541 25.7934 35.7015 25.6259C35.249 25.457 34.8945 25.2096 34.6366 24.8822C34.3786 24.5549 34.2338 24.1461 34.2006 23.6544H30.3027C30.3193 24.8445 30.618 25.8296 31.1988 26.6064C31.7795 27.3848 32.5941 27.9656 33.641 28.3472C34.6878 28.7288 35.9172 28.9189 37.3246 28.9189C38.732 28.9189 39.9267 28.7364 40.9223 28.3683C41.9164 28.0018 42.6812 27.4738 43.2122 26.7844C43.7447 26.0951 44.0132 25.2699 44.0177 24.3075C44.0117 23.6981 43.897 23.1475 43.6723 22.6557C43.4475 22.1655 43.1172 21.7311 42.6812 21.3539L42.6857 21.3555Z" fill="#363636"/>
<path d="M59.769 13.4951H45.5352V16.4849H50.6504V28.7261H54.6629V16.4849H59.769V13.4951Z" fill="#363636"/>
<path d="M64.6121 13.4951L58.9297 28.7261H63.3042L64.413 25.5282H70.2281L71.3383 28.7261H75.7129L70.0305 13.4951H64.6121ZM65.3814 22.733L67.2519 17.3342H67.3831L69.2582 22.733H65.3814Z" fill="#363636"/>
<path d="M87.7205 23C87.7205 23.5249 87.5908 23.994 87.3328 24.4059C87.0749 24.8177 86.7174 25.1405 86.2603 25.3728C85.8017 25.6051 85.2692 25.7227 84.6598 25.7227C84.0504 25.7227 83.5179 25.6051 83.0563 25.3728C82.5962 25.139 82.2372 24.8177 81.9823 24.4059C81.7274 23.994 81.5991 23.5249 81.5991 23V13.4951H77.5293V23.3198C77.5293 24.4556 77.8249 25.4422 78.4178 26.2824C79.0106 27.1241 79.8403 27.7728 80.9098 28.2313C81.9793 28.6899 83.2283 28.9192 84.6598 28.9192C86.0913 28.9192 87.3162 28.6899 88.3857 28.2313C89.4552 27.7728 90.2879 27.1241 90.8853 26.2824C91.4826 25.4422 91.7813 24.4541 91.7813 23.3198V13.4951H87.719V23H87.7205Z" fill="#363636"/>
<path d="M106.669 21.2556C107.179 20.5195 107.434 19.6235 107.434 18.5676C107.434 17.5116 107.183 16.6247 106.685 15.8644C106.186 15.1041 105.477 14.5188 104.56 14.11C103.641 13.7012 102.551 13.4961 101.29 13.4961H94.334V28.7271H98.4038V23.5138H100.49L103.569 28.7271H108.01L104.516 22.9285C105.444 22.5439 106.162 21.9872 106.67 21.2556H106.669ZM98.4023 16.4617H100.409C101.016 16.4617 101.531 16.5402 101.947 16.6956C102.364 16.8524 102.679 17.0847 102.892 17.3955C103.106 17.7047 103.211 18.0954 103.211 18.5676C103.211 19.0397 103.104 19.4244 102.892 19.7246C102.677 20.0247 102.364 20.248 101.95 20.3943C101.535 20.5406 101.021 20.613 100.407 20.613H98.4008V16.4632L98.4023 16.4617Z" fill="#363636"/>
<path d="M114.612 13.4951L108.93 28.7261H113.306L114.414 25.5282H120.23L121.34 28.7261H125.716L120.034 13.4951H114.615H114.612ZM115.381 22.733L117.252 17.3342H117.383L119.258 22.733H115.381Z" fill="#363636"/>
<path d="M137.8 22.2714H137.662L131.033 13.4951H127.529V28.7261H131.601V19.9363H131.706L138.408 28.7261H141.863V13.4951H137.8V22.2714Z" fill="#363636"/>
<path d="M143.861 16.4849H148.977V28.7261H152.989V16.4849H158.097V13.4951H143.861V16.4849Z" fill="#363636"/>
<path d="M163.051 25.6588C162.621 25.2847 162.126 25.0977 161.567 25.0977C160.974 25.0977 160.469 25.2847 160.049 25.6588C159.63 26.0344 159.423 26.4839 159.428 27.0089C159.423 27.5444 159.628 28.0015 160.049 28.3786C160.469 28.7542 160.974 28.9427 161.567 28.9427C161.945 28.9427 162.294 28.8552 162.615 28.6833C162.935 28.5098 163.196 28.276 163.395 27.9834C163.596 27.6907 163.698 27.3664 163.703 27.0089C163.698 26.4839 163.48 26.0344 163.05 25.6588H163.051Z" fill="#363636"/>
<path d="M166.08 11.7194C168.957 11.8702 177.039 12.279 180.614 12.279C184.19 12.279 192.138 11.8763 195.085 11.7224C195.509 11.6998 195.692 11.1748 195.373 10.8958C194.521 10.1476 193.028 8.97096 191.017 7.90145C186.855 5.68853 182.882 5.4517 182.882 5.4517C182.882 5.4517 183.561 3.29309 183.757 2.22359C183.828 1.83742 183.266 0.384766 180.456 0.384766C178.833 0.384766 177.318 1.33812 177.484 2.29901C177.638 3.1875 178.388 5.4336 178.388 5.4336C178.388 5.4336 174.439 5.76396 170.595 7.70384C168.402 8.81106 166.723 10.14 165.809 10.9425C165.509 11.2065 165.679 11.6998 166.077 11.7209L166.08 11.7194Z" fill="#EE781F"/>
<path d="M199.929 16.0802L199.846 15.8011C199.581 14.9021 198.635 14.3892 197.736 14.6547L195.823 15.2204L195.325 12.6816C195.325 12.6816 186.416 13.2669 180.631 13.2669C174.846 13.2669 165.824 12.6816 165.824 12.6816L165.338 15.1721L163.586 14.6532C162.687 14.3877 161.742 14.9006 161.475 15.7996L161.392 16.0787C161.127 16.9778 161.64 17.9221 162.539 18.1891L164.883 18.8829C164.934 20.7715 165.159 24.2757 166.103 26.5399C166.554 27.6215 168.049 33.5528 180.996 33.5528C192.883 33.5528 194.948 27.7301 195.325 26.7481C196.241 24.3632 196.343 20.844 196.321 18.9161L198.783 18.1875C199.682 17.9221 200.195 16.9762 199.929 16.0772V16.0802Z" fill="#EE781F"/>
<path d="M177.714 15.1787C176.938 14.7638 176.016 14.5557 174.949 14.5557H169.066V28.8001H172.509V24.3773H174.847C175.936 24.3773 176.877 24.1752 177.671 23.7724C178.464 23.3696 179.075 22.8009 179.503 22.0648C179.933 21.3302 180.148 20.4704 180.148 19.4883C180.148 18.5063 179.936 17.651 179.514 16.9119C179.093 16.1727 178.493 15.595 177.716 15.1802L177.714 15.1787ZM176.306 20.6318C176.125 20.9591 175.859 21.2125 175.509 21.3935C175.159 21.5746 174.725 21.6651 174.206 21.6651H172.507V17.3328H174.206C174.72 17.3328 175.153 17.4202 175.506 17.5967C175.859 17.7732 176.126 18.0221 176.306 18.3449C176.487 18.6677 176.577 19.0479 176.577 19.4899C176.577 19.9318 176.487 20.3074 176.306 20.6348V20.6318Z" fill="white"/>
<path d="M192.159 17.3528V14.5576H182.229V28.8006H192.159V26.0054H185.669V23.0774H191.652V20.2747H185.669V17.3528H192.159Z" fill="white"/>
<path d="M5.82463 37.718C5.77787 37.7858 5.73111 37.8356 5.68284 37.8673C5.63457 37.899 5.57724 37.9141 5.50936 37.9141C5.43696 37.9141 5.36153 37.8779 5.27857 37.807C5.19711 37.7361 5.09303 37.6576 4.96933 37.5731C4.84564 37.4887 4.6963 37.4102 4.52132 37.3393C4.34634 37.2684 4.13063 37.2322 3.87419 37.2322C3.61775 37.2322 3.38092 37.273 3.17878 37.3514C2.97665 37.4313 2.80619 37.54 2.66741 37.6772C2.52863 37.8145 2.42304 37.9744 2.35214 38.1614C2.27974 38.347 2.24504 38.5446 2.24504 38.7558C2.24504 38.967 2.29482 39.1435 2.39589 39.2898C2.49696 39.4346 2.6297 39.5583 2.79412 39.6624C2.95855 39.7649 3.1456 39.857 3.35377 39.9369C3.56193 40.0169 3.77614 40.0998 3.99486 40.1858C4.21359 40.2718 4.42779 40.3698 4.63596 40.4769C4.84413 40.584 5.03118 40.7168 5.1956 40.8722C5.36003 41.0275 5.49277 41.2161 5.59384 41.4363C5.69491 41.6566 5.74468 41.9266 5.74468 42.2418C5.74468 42.6763 5.66926 43.0851 5.51992 43.4713C5.37058 43.8559 5.15638 44.1938 4.87883 44.4849C4.60127 44.7761 4.26337 45.0054 3.86815 45.1728C3.47293 45.3418 3.02794 45.4247 2.53618 45.4247C2.26616 45.4247 2.00821 45.3976 1.76233 45.3387C1.51645 45.2829 1.28566 45.2015 1.06995 45.0989C0.854237 44.9948 0.658136 44.8711 0.478628 44.7263C0.299121 44.58 0.140732 44.4171 0.00195312 44.236L0.456001 43.6161C0.498239 43.5693 0.546509 43.5301 0.600814 43.4954C0.655119 43.4622 0.715458 43.4456 0.777305 43.4456C0.83161 43.4456 0.89044 43.4682 0.950778 43.512C1.01263 43.5557 1.079 43.6115 1.15291 43.6794C1.22683 43.7458 1.30979 43.8182 1.40181 43.8936C1.49383 43.969 1.60093 44.0399 1.72311 44.1078C1.8453 44.1757 1.98709 44.2315 2.14699 44.2753C2.30689 44.319 2.49092 44.3416 2.69758 44.3416C2.97514 44.3416 3.22555 44.2979 3.44578 44.2119C3.66753 44.1259 3.85608 44.0037 4.01146 43.8484C4.16683 43.693 4.286 43.5059 4.36896 43.2857C4.45042 43.067 4.49266 42.8241 4.49266 42.5601C4.49266 42.3339 4.44288 42.1453 4.34483 41.999C4.24527 41.8512 4.11403 41.726 3.94961 41.6234C3.78519 41.5193 3.59965 41.4303 3.39148 41.3549C3.18331 41.2794 2.97061 41.2025 2.7534 41.1211C2.53618 41.0411 2.32348 40.9506 2.11531 40.8495C1.90715 40.7485 1.7201 40.6187 1.55567 40.4619C1.39125 40.3035 1.26001 40.1089 1.16046 39.8811C1.0609 39.6503 1.01263 39.3682 1.01263 39.0318C1.01263 38.6562 1.08051 38.2957 1.21778 37.9488C1.35505 37.6003 1.55115 37.2941 1.8091 37.0301C2.06554 36.7646 2.3793 36.5519 2.74736 36.395C3.11543 36.2366 3.53176 36.1582 3.99486 36.1582C4.45796 36.1582 4.8924 36.2502 5.27404 36.4327C5.65568 36.6153 5.96643 36.8611 6.20627 37.1689L5.82765 37.718H5.82463Z" fill="#363636"/>
<path d="M9.11845 45.4131C8.76849 45.4131 8.44718 45.3543 8.15152 45.2336C7.85737 45.1129 7.60244 44.9394 7.38975 44.7117C7.17705 44.4854 7.01112 44.2048 6.89044 43.8745C6.76977 43.5441 6.71094 43.1655 6.71094 42.7401C6.71094 42.1971 6.79692 41.6857 6.96738 41.209C7.13783 40.7308 7.37165 40.313 7.66881 39.9585C7.96598 39.6025 8.31444 39.3234 8.7172 39.1183C9.11996 38.9146 9.55289 38.8105 10.016 38.8105C10.366 38.8105 10.6873 38.8709 10.9829 38.9916C11.2771 39.1122 11.532 39.2857 11.7447 39.512C11.9574 39.7398 12.1248 40.0188 12.244 40.3492C12.3647 40.6795 12.4235 41.0551 12.4235 41.4775C12.4235 42.016 12.3375 42.5259 12.1671 43.0041C11.9966 43.4823 11.7628 43.9001 11.4656 44.2576C11.1685 44.6166 10.8185 44.8987 10.4172 45.1054C10.0145 45.312 9.58155 45.4146 9.11845 45.4146V45.4131ZM9.23158 44.4522C9.52574 44.4522 9.79424 44.3708 10.0371 44.2093C10.2785 44.0479 10.4851 43.8292 10.6556 43.5562C10.826 43.2816 10.9588 42.9664 11.0508 42.6089C11.1443 42.2514 11.1896 41.8773 11.1896 41.4835C11.1896 40.9058 11.0795 40.4774 10.8607 40.1938C10.642 39.9117 10.3222 39.7699 9.89984 39.7699C9.60116 39.7699 9.33114 39.8514 9.0913 40.0128C8.85145 40.1757 8.64479 40.3914 8.47433 40.6645C8.30388 40.936 8.17264 41.2512 8.07912 41.6088C7.9871 41.9678 7.94034 42.3419 7.94034 42.7341C7.94034 43.3028 8.05046 43.7312 8.26918 44.0193C8.48791 44.3074 8.80771 44.4522 9.23008 44.4522H9.23158Z" fill="#363636"/>
<path d="M15.4409 39.0067H18.1003L18.586 37.0804C18.6071 37.008 18.6433 36.9537 18.6931 36.9129C18.7429 36.8722 18.8047 36.8541 18.8756 36.8541H19.5258L19.2603 39.0082H20.9151L20.814 39.8801H19.1532L18.7746 42.9634C18.7535 43.1354 18.7369 43.2741 18.7233 43.3797C18.7112 43.4838 18.7007 43.5683 18.6946 43.6286C18.6886 43.6905 18.6841 43.7327 18.6811 43.7584C18.6795 43.7825 18.678 43.8021 18.678 43.8142C18.678 44.0118 18.7248 44.1611 18.8198 44.2637C18.9149 44.3648 19.0446 44.4145 19.2075 44.4145C19.3131 44.4145 19.4051 44.3995 19.482 44.3708C19.5605 44.3421 19.6284 44.309 19.6872 44.2727C19.746 44.2365 19.7958 44.2034 19.835 44.1747C19.8758 44.1445 19.912 44.1294 19.9467 44.1294C20.0145 44.1294 20.0628 44.1702 20.0915 44.2501L20.357 44.8445C20.1428 45.03 19.9029 45.1718 19.6374 45.2744C19.3719 45.3754 19.1019 45.4252 18.8289 45.4252C18.408 45.4252 18.0762 45.3106 17.8348 45.0813C17.5919 44.852 17.4652 44.5201 17.4517 44.0857C17.4517 44.0616 17.4517 44.0284 17.4547 43.9876C17.4562 43.9469 17.4607 43.8896 17.4667 43.8142C17.4728 43.7388 17.4833 43.6377 17.4954 43.511C17.5075 43.3843 17.5271 43.2229 17.5512 43.0237L17.9434 39.8771H15.3654L14.7334 45.1024L14.4302 46.3725C14.3804 46.5415 14.305 46.6697 14.2054 46.7572C14.1074 46.8462 13.9686 46.8899 13.7921 46.8899H13.3049L14.1572 39.8846L13.5628 39.8032C13.4693 39.7866 13.3984 39.7549 13.3471 39.7081C13.2973 39.6614 13.2777 39.592 13.2913 39.5L13.3471 39.0067H14.2628L14.3321 38.4259C14.3789 38.0594 14.4709 37.7335 14.6097 37.4469C14.7485 37.1603 14.925 36.9175 15.1407 36.7168C15.3549 36.5177 15.6008 36.3654 15.8768 36.2613C16.1529 36.1587 16.4485 36.1074 16.7653 36.1074C17.0217 36.1074 17.2646 36.1497 17.4924 36.2341L17.3717 36.8782C17.3627 36.925 17.3445 36.9567 17.3144 36.9763C17.2857 36.9944 17.2465 37.008 17.2012 37.017C17.1545 37.0261 17.1017 37.0291 17.0398 37.0276C16.978 37.0261 16.9146 37.0246 16.8468 37.0246C16.6703 37.0246 16.5058 37.0487 16.3535 37.1C16.2026 37.1513 16.0684 37.2342 15.9522 37.3459C15.8361 37.4605 15.7395 37.6083 15.6611 37.7924C15.5827 37.9749 15.5268 38.1997 15.4937 38.4652L15.4303 39.0082L15.4409 39.0067Z" fill="#363636"/>
<path d="M30.4192 38.9068L27.7342 45.3253H26.7929C26.6782 45.3253 26.6134 45.2469 26.5968 45.0915L25.8576 40.9085C25.8441 40.8376 25.835 40.7667 25.829 40.6973C25.8229 40.6279 25.8154 40.557 25.8064 40.4861C25.7852 40.5585 25.7611 40.6309 25.734 40.7049C25.7068 40.7773 25.6781 40.8512 25.648 40.9221L23.8785 45.0915C23.8152 45.2469 23.7232 45.3253 23.5995 45.3253H22.6959L21.5781 38.9068H22.4998C22.5888 38.9068 22.6612 38.9294 22.717 38.9762C22.7743 39.0229 22.809 39.0818 22.8211 39.1542L23.3581 43.0958C23.3702 43.2557 23.3807 43.4095 23.3868 43.5574C23.3928 43.7037 23.3988 43.8515 23.4034 43.9994C23.4577 43.853 23.515 43.7052 23.5738 43.5574C23.6327 43.4095 23.6915 43.2557 23.7503 43.0958L25.4172 39.1285C25.4428 39.0561 25.4866 38.9988 25.5499 38.955C25.6133 38.9113 25.6827 38.8887 25.7581 38.8887H26.2755C26.36 38.8887 26.4278 38.9113 26.4806 38.955C26.5334 38.9988 26.5636 39.0561 26.5727 39.1285L27.2484 43.0958C27.2696 43.2512 27.2892 43.405 27.3088 43.5574C27.3284 43.7082 27.3435 43.8591 27.3556 44.0054C27.3978 43.8591 27.4415 43.7097 27.4883 43.5604C27.5351 43.4111 27.5848 43.2557 27.6391 43.0958L29.1687 39.1542C29.1944 39.0818 29.2381 39.0229 29.3015 38.9762C29.3648 38.9294 29.4357 38.9068 29.5157 38.9068H30.4132H30.4192Z" fill="#363636"/>
<path d="M34.4244 43.7201C34.2765 43.9765 34.1182 44.2088 33.9477 44.417C33.7772 44.6252 33.5962 44.8047 33.4047 44.951C33.2131 45.0988 33.0109 45.2119 32.7982 45.2919C32.5856 45.3718 32.3653 45.4126 32.1375 45.4126C31.8856 45.4126 31.6548 45.3628 31.4452 45.2647C31.237 45.1652 31.0575 45.0204 30.9081 44.8288C30.7588 44.6372 30.6427 44.4004 30.5612 44.1183C30.4797 43.8362 30.4375 43.5119 30.4375 43.1453C30.4375 42.7788 30.4843 42.3941 30.5793 42.0306C30.6743 41.6671 30.8101 41.3246 30.9866 41.0048C31.1631 40.685 31.3758 40.3894 31.6216 40.1209C31.8675 39.8509 32.1436 39.6201 32.4468 39.4255C32.75 39.2309 33.0773 39.0815 33.4288 38.9729C33.7803 38.8658 34.1483 38.8115 34.5315 38.8115C34.809 38.8115 35.0821 38.8342 35.3491 38.8779C35.6161 38.9216 35.88 38.9986 36.1425 39.1087L35.3717 45.3251H34.7276C34.5677 45.3251 34.4606 45.2844 34.4048 45.2014C34.3505 45.1199 34.3233 45.0189 34.3233 44.9012L34.4244 43.7201ZM34.8543 39.7468C34.6899 39.7211 34.527 39.7091 34.3686 39.7091C33.993 39.7091 33.6415 39.7966 33.3126 39.9715C32.9838 40.1465 32.6987 40.3818 32.4558 40.676C32.2145 40.9701 32.0229 41.3126 31.8811 41.7017C31.7393 42.0924 31.6699 42.4997 31.6699 42.9251C31.6699 43.4169 31.7499 43.7849 31.9098 44.0278C32.0697 44.2707 32.302 44.3913 32.6052 44.3913C32.8028 44.3913 32.9974 44.3265 33.1889 44.1983C33.3805 44.07 33.5615 43.8935 33.732 43.6673C33.9024 43.4425 34.0608 43.177 34.2056 42.8678C34.3505 42.5601 34.4787 42.2252 34.5873 41.8632L34.8528 39.7468H34.8543Z" fill="#363636"/>
<path d="M38.6947 40.6373C38.8637 40.2873 39.0447 39.9856 39.2378 39.7307C39.4323 39.4758 39.633 39.2752 39.8442 39.1303C40.0553 38.9855 40.2726 38.8965 40.4988 38.8649C40.7236 38.8332 40.9499 38.8679 41.1776 38.9689L40.9574 40.1576C40.4144 39.9374 39.9377 40.0113 39.5289 40.3778C39.1201 40.7444 38.7897 41.4217 38.5378 42.4113L38.1833 45.3241H36.9766L37.7534 38.892H38.3734C38.5077 38.892 38.6117 38.9252 38.6826 38.9931C38.7535 39.0594 38.7897 39.165 38.7897 39.3083L38.6947 40.6358V40.6373Z" fill="#363636"/>
<path d="M46.2398 44.1368C46.021 44.36 45.8083 44.5516 45.6017 44.7115C45.395 44.8714 45.1838 45.0041 44.9666 45.1097C44.7494 45.2138 44.5231 45.2923 44.2878 45.3405C44.051 45.3888 43.7945 45.4129 43.517 45.4129C43.1504 45.4129 42.8186 45.3511 42.5214 45.2274C42.2242 45.1037 41.9723 44.9257 41.7672 44.6994C41.5605 44.4732 41.4021 44.1971 41.2905 43.8743C41.1789 43.553 41.123 43.191 41.123 42.7912C41.123 42.4594 41.1577 42.1305 41.2271 41.8032C41.2965 41.4758 41.3991 41.1681 41.5333 40.874C41.6676 40.5813 41.832 40.3083 42.0251 40.0549C42.2197 39.8029 42.4399 39.5842 42.6888 39.4002C42.9377 39.2177 43.2108 39.0744 43.5094 38.9703C43.8081 38.8677 44.1309 38.8164 44.4764 38.8164C44.8218 38.8164 45.0888 38.8632 45.3287 38.9552C45.5685 39.0472 45.7676 39.1664 45.926 39.3112C46.0844 39.4575 46.2005 39.6189 46.2775 39.7954C46.3529 39.9719 46.3906 40.1454 46.3906 40.3128C46.3906 40.5919 46.3333 40.8468 46.2202 41.0806C46.107 41.3144 45.8989 41.5241 45.5972 41.7127C45.2955 41.8997 44.8821 42.0626 44.3557 42.2014C43.8292 42.3417 43.1534 42.4518 42.3283 42.5363C42.3238 42.574 42.3223 42.6117 42.3223 42.6509V42.7656C42.3223 43.3177 42.4414 43.734 42.6798 44.0161C42.9181 44.2982 43.2771 44.44 43.7568 44.44C43.9544 44.44 44.1324 44.4189 44.2878 44.3796C44.4432 44.3404 44.582 44.2906 44.7011 44.2318C44.8218 44.173 44.9274 44.1081 45.0209 44.0387C45.1129 43.9693 45.1989 43.9045 45.2774 43.8471C45.3543 43.7883 45.4282 43.7385 45.4946 43.6978C45.5625 43.6571 45.6319 43.639 45.7028 43.639C45.7495 43.639 45.7902 43.6495 45.8264 43.6737C45.8627 43.6963 45.8973 43.725 45.9305 43.7597L46.2398 44.1383V44.1368ZM44.407 39.6943C44.1536 39.6943 43.9228 39.7471 43.7116 39.8497C43.5004 39.9538 43.3118 40.0956 43.1429 40.2796C42.9739 40.4637 42.8306 40.6779 42.713 40.9252C42.5953 41.1711 42.5018 41.4396 42.4354 41.7308C43.0554 41.6508 43.5502 41.5618 43.9228 41.4653C44.2954 41.3672 44.5835 41.2616 44.7856 41.1455C44.9877 41.0293 45.122 40.9056 45.1869 40.7759C45.2517 40.6462 45.2849 40.5074 45.2849 40.3596C45.2849 40.2887 45.2698 40.2132 45.2381 40.1363C45.2065 40.0579 45.1567 39.987 45.0873 39.9221C45.0179 39.8557 44.9274 39.8029 44.8158 39.7607C44.7041 39.7185 44.5684 39.6974 44.4085 39.6974L44.407 39.6943Z" fill="#363636"/>
<path d="M56.342 36L55.1925 45.3253H54.5484C54.3885 45.3253 54.2814 45.2846 54.2256 45.2016C54.1713 45.1202 54.1442 45.0191 54.1442 44.9015L54.2513 43.669C54.0914 43.9345 53.9179 44.1759 53.7293 44.3901C53.5423 44.6043 53.3462 44.7883 53.1425 44.9392C52.9389 45.09 52.7262 45.2077 52.5045 45.2891C52.2842 45.3706 52.0564 45.4128 51.8256 45.4128C51.2871 45.4128 50.8617 45.2152 50.5525 44.8185C50.2433 44.4233 50.0879 43.835 50.0879 43.0566C50.0879 42.7066 50.1241 42.3582 50.198 42.0112C50.2719 41.6643 50.3745 41.3339 50.5072 41.0187C50.64 40.7049 50.7999 40.4138 50.9869 40.1438C51.174 39.8752 51.3837 39.6399 51.616 39.4423C51.8483 39.2447 52.0972 39.0893 52.3642 38.9777C52.6312 38.8661 52.9132 38.8103 53.2074 38.8103C53.5196 38.8103 53.8017 38.8691 54.0567 38.9883C54.3116 39.1059 54.5273 39.2719 54.7038 39.4876L55.1337 36H56.3405H56.342ZM54.5982 40.3278C54.4428 40.1211 54.2573 39.9748 54.0431 39.8918C53.8274 39.8074 53.6132 39.7651 53.399 39.7651C53.1848 39.7651 52.9887 39.8089 52.8016 39.8979C52.6146 39.9869 52.4441 40.106 52.2903 40.2584C52.1364 40.4108 51.9991 40.5888 51.8769 40.7954C51.7547 41.0021 51.6522 41.2223 51.5677 41.4591C51.4832 41.6945 51.4199 41.9388 51.3746 42.1907C51.3309 42.4427 51.3082 42.6916 51.3082 42.9359C51.3082 43.4247 51.3942 43.7942 51.5677 44.0477C51.7412 44.2996 51.984 44.4263 52.3008 44.4263C52.4954 44.4263 52.6915 44.3629 52.8921 44.2392C53.0912 44.1155 53.2828 43.9436 53.4669 43.7249C53.6509 43.5061 53.8213 43.2467 53.9812 42.948C54.1411 42.6493 54.2799 42.322 54.3976 41.969L54.5997 40.3263L54.5982 40.3278Z" fill="#363636"/>
<path d="M61.9312 44.1368C61.7124 44.36 61.4997 44.5516 61.2931 44.7115C61.0864 44.8714 60.8752 45.0041 60.658 45.1097C60.4408 45.2138 60.2145 45.2923 59.9792 45.3405C59.7424 45.3888 59.4859 45.4129 59.2084 45.4129C58.8418 45.4129 58.51 45.3511 58.2128 45.2274C57.9156 45.1037 57.6637 44.9257 57.4586 44.6994C57.2519 44.4732 57.0935 44.1971 56.9819 43.8743C56.8703 43.553 56.8145 43.191 56.8145 42.7912C56.8145 42.4594 56.8491 42.1305 56.9185 41.8032C56.9879 41.4758 57.0905 41.1681 57.2248 40.874C57.359 40.5813 57.5234 40.3083 57.7165 40.0549C57.9111 39.8029 58.1313 39.5842 58.3802 39.4002C58.6291 39.2177 58.9022 39.0744 59.2008 38.9703C59.4995 38.8677 59.8223 38.8164 60.1678 38.8164C60.5132 38.8164 60.7802 38.8632 61.0201 38.9552C61.2599 39.0472 61.459 39.1664 61.6174 39.3112C61.7758 39.4575 61.8919 39.6189 61.9689 39.7954C62.0443 39.9719 62.082 40.1454 62.082 40.3128C62.082 40.5919 62.0247 40.8468 61.9116 41.0806C61.7984 41.3144 61.5903 41.5241 61.2886 41.7127C60.9869 41.8997 60.5735 42.0626 60.0471 42.2014C59.5206 42.3417 58.8448 42.4518 58.0197 42.5363C58.0152 42.574 58.0137 42.6117 58.0137 42.6509V42.7656C58.0137 43.3177 58.1328 43.734 58.3712 44.0161C58.6095 44.2982 58.9685 44.44 59.4482 44.44C59.6458 44.44 59.8238 44.4189 59.9792 44.3796C60.1346 44.3404 60.2734 44.2906 60.3925 44.2318C60.5132 44.173 60.6188 44.1081 60.7123 44.0387C60.8043 43.9693 60.8903 43.9045 60.9688 43.8471C61.0457 43.7883 61.1196 43.7385 61.186 43.6978C61.2539 43.6571 61.3233 43.639 61.3942 43.639C61.4409 43.639 61.4816 43.6495 61.5178 43.6737C61.5541 43.6963 61.5887 43.725 61.6219 43.7597L61.9312 44.1383V44.1368ZM60.0984 39.6943C59.8465 39.6943 59.6142 39.7471 59.403 39.8497C59.1918 39.9538 59.0032 40.0956 58.8343 40.2796C58.6653 40.4637 58.522 40.6779 58.4044 40.9252C58.2867 41.1711 58.1932 41.4396 58.1268 41.7308C58.7468 41.6508 59.2416 41.5618 59.6142 41.4653C59.9868 41.3672 60.2749 41.2616 60.477 41.1455C60.6791 41.0293 60.8134 40.9056 60.8783 40.7759C60.9431 40.6462 60.9763 40.5074 60.9763 40.3596C60.9763 40.2887 60.9612 40.2132 60.9295 40.1363C60.8979 40.0579 60.8481 39.987 60.7787 39.9221C60.7093 39.8557 60.6188 39.8029 60.5072 39.7607C60.3955 39.7185 60.2598 39.6974 60.0999 39.6974L60.0984 39.6943Z" fill="#363636"/>
<path d="M71.7116 39.1334L71.6542 39.5437C71.6331 39.7127 71.5441 39.8228 71.3888 39.8726L70.63 40.0234C70.6632 40.1215 70.6888 40.2256 70.7054 40.3402C70.722 40.4549 70.7311 40.574 70.7311 40.6992C70.7265 40.9059 70.7024 41.0929 70.6556 41.2589C70.6089 41.4248 70.5516 41.5772 70.4822 41.7174C70.4128 41.8562 70.3374 41.9875 70.2589 42.1112C70.179 42.2349 70.1035 42.3601 70.0342 42.4837C69.9648 42.6074 69.9074 42.7357 69.8607 42.8684C69.8139 43.0027 69.7913 43.146 69.7913 43.3013C69.7913 43.4733 69.832 43.6332 69.915 43.778C69.9964 43.9243 70.0869 44.0722 70.1865 44.2275C70.2861 44.3814 70.3766 44.5458 70.458 44.7238C70.5395 44.9003 70.5817 45.1085 70.5817 45.3498C70.5772 45.653 70.5063 45.9412 70.3675 46.2142C70.2287 46.4887 70.0296 46.7301 69.7702 46.9382C69.5107 47.1464 69.1954 47.3108 68.8229 47.433C68.4503 47.5552 68.0294 47.6171 67.5633 47.6171C67.1877 47.6171 66.8483 47.5778 66.5436 47.4994C66.2373 47.421 65.9779 47.3108 65.7637 47.1706C65.5495 47.0303 65.382 46.8598 65.2644 46.6622C65.1467 46.4646 65.0879 46.2474 65.0879 46.0105C65.0879 45.7375 65.1452 45.4946 65.2614 45.285C65.3775 45.0738 65.5344 44.8943 65.732 44.7449C65.9296 44.5956 66.1604 44.4734 66.4214 44.3784C66.6823 44.2833 66.9584 44.2155 67.2495 44.1702C67.5407 44.1265 67.8363 44.1054 68.1365 44.1069C68.4382 44.1084 68.7293 44.131 69.0114 44.1732C68.9782 44.1008 68.9511 44.0254 68.933 43.9455C68.9149 43.8655 68.9043 43.7765 68.9043 43.68C68.9043 43.5532 68.9239 43.4205 68.9616 43.2787C68.9993 43.1384 69.0597 42.9846 69.1442 42.8201C68.9843 42.9303 68.8048 43.0147 68.6071 43.072C68.4095 43.1309 68.1787 43.161 67.9178 43.161C67.6734 43.161 67.4441 43.1203 67.2284 43.0419C67.0142 42.9619 66.8241 42.8428 66.6627 42.6844C66.4998 42.526 66.3716 42.3299 66.2766 42.0931C66.1815 41.8562 66.1348 41.5817 66.1348 41.2649C66.1348 40.9481 66.1906 40.657 66.3052 40.3613C66.4184 40.0672 66.5858 39.8047 66.8045 39.5754C67.0233 39.3446 67.2948 39.1606 67.6191 39.0188C67.9434 38.8785 68.316 38.8076 68.7369 38.8076C68.9647 38.8076 69.1804 38.8348 69.387 38.8861C69.5937 38.9389 69.7807 39.0203 69.9497 39.1289H71.7116V39.1334ZM69.4564 45.4449C69.4564 45.3468 69.4489 45.2563 69.4338 45.1733C69.4187 45.0889 69.3991 45.0119 69.3734 44.9395C68.8304 44.8475 68.3628 44.8113 67.9706 44.8324C67.5799 44.8535 67.2556 44.9109 67.0006 45.0059C66.7457 45.1009 66.5586 45.2246 66.438 45.3755C66.3188 45.5278 66.2585 45.6892 66.2585 45.8627C66.2585 46.1538 66.3776 46.3741 66.619 46.5264C66.8588 46.6773 67.2088 46.7527 67.6674 46.7527C67.9329 46.7527 68.1757 46.718 68.3975 46.6486C68.6177 46.5792 68.8063 46.4857 68.9631 46.3665C69.1185 46.2489 69.2407 46.1101 69.3267 45.9502C69.4127 45.7903 69.4564 45.6214 69.4564 45.4449ZM68.2557 42.3993C68.4699 42.3993 68.6614 42.351 68.8304 42.2545C68.9978 42.1564 69.1396 42.0312 69.2543 41.8758C69.3674 41.7205 69.4534 41.544 69.5137 41.3479C69.5726 41.1518 69.6042 40.9542 69.6088 40.7505C69.6088 40.3915 69.5183 40.1215 69.3403 39.9344C69.1608 39.7489 68.9134 39.6569 68.5981 39.6569C68.3839 39.6569 68.1923 39.7021 68.0264 39.7926C67.8605 39.8832 67.7202 40.0038 67.607 40.1517C67.4939 40.301 67.4064 40.4745 67.3476 40.6706C67.2887 40.8652 67.2586 41.0673 67.2586 41.274C67.2586 41.636 67.3461 41.9151 67.521 42.1081C67.696 42.3027 67.9404 42.3993 68.2572 42.3993H68.2557Z" fill="#363636"/>
<path d="M76.9312 44.1368C76.7124 44.36 76.4998 44.5516 76.2931 44.7115C76.0864 44.8714 75.8752 45.0041 75.658 45.1097C75.4408 45.2138 75.2145 45.2923 74.9792 45.3405C74.7424 45.3888 74.4859 45.4129 74.2084 45.4129C73.8418 45.4129 73.51 45.3511 73.2128 45.2274C72.9156 45.1037 72.6637 44.9257 72.4586 44.6994C72.2519 44.4732 72.0935 44.1971 71.9819 43.8743C71.8703 43.553 71.8145 43.191 71.8145 42.7912C71.8145 42.4594 71.8491 42.1305 71.9185 41.8032C71.9879 41.4758 72.0905 41.1681 72.2248 40.874C72.359 40.5813 72.5234 40.3083 72.7165 40.0549C72.9111 39.8029 73.1313 39.5842 73.3802 39.4002C73.6291 39.2177 73.9022 39.0744 74.2008 38.9703C74.4995 38.8677 74.8223 38.8164 75.1678 38.8164C75.5132 38.8164 75.7802 38.8632 76.0201 38.9552C76.2599 39.0472 76.459 39.1664 76.6174 39.3112C76.7758 39.4575 76.8919 39.6189 76.9689 39.7954C77.0443 39.9719 77.082 40.1454 77.082 40.3128C77.082 40.5919 77.0247 40.8468 76.9116 41.0806C76.7984 41.3144 76.5903 41.5241 76.2886 41.7127C75.9869 41.8997 75.5736 42.0626 75.0471 42.2014C74.5206 42.3417 73.8448 42.4518 73.0197 42.5363C73.0152 42.574 73.0137 42.6117 73.0137 42.6509V42.7656C73.0137 43.3177 73.1329 43.734 73.3712 44.0161C73.6095 44.2982 73.9685 44.44 74.4482 44.44C74.6458 44.44 74.8238 44.4189 74.9792 44.3796C75.1346 44.3404 75.2734 44.2906 75.3925 44.2318C75.5132 44.173 75.6188 44.1081 75.7123 44.0387C75.8043 43.9693 75.8903 43.9045 75.9688 43.8471C76.0457 43.7883 76.1196 43.7385 76.186 43.6978C76.2539 43.6571 76.3233 43.639 76.3942 43.639C76.4409 43.639 76.4816 43.6495 76.5179 43.6737C76.5541 43.6963 76.5887 43.725 76.6219 43.7597L76.9312 44.1383V44.1368ZM75.0984 39.6943C74.845 39.6943 74.6142 39.7471 74.403 39.8497C74.1918 39.9538 74.0032 40.0956 73.8343 40.2796C73.6653 40.4637 73.522 40.6779 73.4044 40.9252C73.2867 41.1711 73.1932 41.4396 73.1268 41.7308C73.7468 41.6508 74.2416 41.5618 74.6142 41.4653C74.9868 41.3672 75.2749 41.2616 75.477 41.1455C75.6791 41.0293 75.8134 40.9056 75.8783 40.7759C75.9431 40.6462 75.9763 40.5074 75.9763 40.3596C75.9763 40.2887 75.9612 40.2132 75.9295 40.1363C75.8979 40.0579 75.8481 39.987 75.7787 39.9221C75.7093 39.8557 75.6188 39.8029 75.5072 39.7607C75.3955 39.7185 75.2598 39.6974 75.0999 39.6974L75.0984 39.6943Z" fill="#363636"/>
<path d="M82.0617 39.9792C82.024 40.035 81.9863 40.0742 81.9516 40.0968C81.9154 40.121 81.8701 40.1315 81.8158 40.1315C81.7525 40.1315 81.6861 40.1074 81.6167 40.0621C81.5473 40.0154 81.4628 39.9656 81.3633 39.9113C81.2637 39.8555 81.1446 39.8057 81.0058 39.7589C80.867 39.7122 80.6981 39.6895 80.5004 39.6895C80.3149 39.6895 80.149 39.7152 80.0011 39.765C79.8533 39.8147 79.7266 39.8841 79.6195 39.9701C79.5124 40.0561 79.4294 40.1587 79.3736 40.2763C79.3178 40.394 79.2876 40.5192 79.2876 40.6489C79.2876 40.7922 79.3253 40.9129 79.4023 41.0094C79.4777 41.106 79.5773 41.192 79.6994 41.2659C79.8216 41.3398 79.9619 41.4062 80.1188 41.465C80.2772 41.5238 80.4371 41.5857 80.6015 41.6505C80.7659 41.7169 80.9273 41.7893 81.0842 41.8678C81.2426 41.9477 81.3814 42.0458 81.5036 42.1619C81.6258 42.2781 81.7253 42.4184 81.8007 42.5813C81.8762 42.7457 81.9154 42.9418 81.9154 43.1696C81.9154 43.4682 81.8566 43.7533 81.7389 44.0249C81.6212 44.2964 81.4523 44.5362 81.2305 44.7444C81.0103 44.9526 80.7433 45.1185 80.4311 45.2407C80.1188 45.3629 79.7703 45.4232 79.3827 45.4232C78.9739 45.4232 78.6103 45.3508 78.2905 45.203C77.9707 45.0567 77.7113 44.8681 77.5137 44.6418L77.8169 44.1667C77.8968 44.0445 78.0039 43.9841 78.1382 43.9841C78.2106 43.9841 78.28 44.0143 78.3494 44.0731C78.4188 44.132 78.5047 44.1968 78.6058 44.2662C78.7069 44.3356 78.8306 44.4005 78.9784 44.4578C79.1262 44.5166 79.3148 44.5468 79.5471 44.5468C79.7447 44.5468 79.9227 44.5181 80.0811 44.4578C80.2395 44.399 80.3722 44.3205 80.4823 44.221C80.5925 44.1214 80.6754 44.0068 80.7312 43.8755C80.7886 43.7458 80.8172 43.607 80.8172 43.4592C80.8172 43.3114 80.7795 43.1726 80.7041 43.0655C80.6287 42.9584 80.5291 42.8679 80.4069 42.794C80.2847 42.72 80.1444 42.6537 79.9876 42.5979C79.8292 42.542 79.6693 42.4817 79.5079 42.4214C79.345 42.3595 79.1851 42.2932 79.0282 42.2192C78.8698 42.1453 78.7295 42.0518 78.6088 41.9372C78.4866 41.8225 78.3871 41.6852 78.3117 41.5238C78.2362 41.3609 78.197 41.1648 78.197 40.9325C78.197 40.6595 78.2513 40.394 78.3614 40.1391C78.4715 39.8841 78.6284 39.6579 78.8321 39.4603C79.0372 39.2626 79.2846 39.1043 79.5773 38.9866C79.8699 38.8689 80.2018 38.8086 80.5728 38.8086C80.9681 38.8086 81.315 38.8735 81.6122 39.0017C81.9094 39.1299 82.1658 39.3064 82.38 39.5296L82.0647 39.9777L82.0617 39.9792Z" fill="#363636"/>
<path d="M89.2743 39.8858H89.2683L88.6045 45.3253H87.4113L88.0811 39.8858H85.1622L84.7836 42.963C84.7625 43.135 84.7459 43.2738 84.7338 43.3794C84.7217 43.4834 84.7112 43.5679 84.7051 43.6283C84.6991 43.6901 84.6961 43.7323 84.6961 43.758V43.8138C84.6961 44.0114 84.7428 44.1608 84.8379 44.2633C84.9329 44.3644 85.0626 44.4142 85.2271 44.4142C85.3311 44.4142 85.4232 44.3991 85.5016 44.3704C85.58 44.3418 85.6479 44.3086 85.7037 44.2724C85.7596 44.2362 85.8078 44.203 85.8486 44.1743C85.8893 44.1442 85.9255 44.1291 85.9602 44.1291C86.0024 44.1291 86.0326 44.1396 86.0522 44.1577C86.0718 44.1773 86.0914 44.2075 86.1125 44.2497L86.378 44.8441C86.1638 45.0296 85.9225 45.1714 85.6585 45.274C85.393 45.3751 85.123 45.4248 84.8499 45.4248C84.4276 45.4248 84.0972 45.3102 83.8544 45.0809C83.6115 44.8516 83.4848 44.5198 83.4727 44.0853C83.4727 44.0612 83.4727 44.028 83.4757 43.9873C83.4772 43.9465 83.4818 43.8892 83.4893 43.8138C83.4953 43.7384 83.5044 43.6373 83.518 43.5106C83.53 43.3839 83.5497 43.2225 83.5738 43.0234L83.9584 39.8842H83.2947C83.2268 39.8842 83.1725 39.8616 83.1303 39.8179C83.0881 39.7741 83.0715 39.7108 83.0805 39.6263L83.1439 39.1526L84.1108 39.0063L84.6041 37.08C84.6252 37.0076 84.6599 36.9533 84.7112 36.9126C84.761 36.8718 84.8228 36.8537 84.8952 36.8537H85.5453L85.2738 39.0199H89.3799L89.2788 39.8858H89.2743ZM89.9259 36.9231C89.9259 37.0378 89.9018 37.1464 89.8535 37.249C89.8053 37.353 89.7419 37.4435 89.665 37.5205C89.5865 37.5989 89.4975 37.6608 89.3965 37.7045C89.2954 37.7483 89.1913 37.7709 89.0872 37.7709C88.9832 37.7709 88.8806 37.7498 88.784 37.7045C88.686 37.6608 88.6015 37.5989 88.5276 37.5205C88.4552 37.4435 88.3948 37.353 88.3511 37.249C88.3074 37.1464 88.2847 37.0378 88.2847 36.9231C88.2847 36.8085 88.3058 36.7014 88.3511 36.5973C88.3948 36.4947 88.4552 36.4042 88.5321 36.3258C88.6075 36.2473 88.6935 36.1855 88.7916 36.1387C88.8881 36.092 88.9892 36.0693 89.0948 36.0693C89.2004 36.0693 89.3029 36.0905 89.404 36.1357C89.5051 36.1795 89.5956 36.2413 89.6725 36.3197C89.751 36.3982 89.8128 36.4887 89.8581 36.5913C89.9048 36.6953 89.9275 36.8055 89.9275 36.9231H89.9259Z" fill="#363636"/>
<path d="M92.7044 45.4124C92.3544 45.4124 92.0331 45.3535 91.7375 45.2329C91.4433 45.1122 91.1884 44.9387 90.9757 44.7109C90.763 44.4847 90.5971 44.2041 90.4764 43.8737C90.3557 43.5434 90.2969 43.1648 90.2969 42.7394C90.2969 42.1963 90.3829 41.685 90.5533 41.2083C90.7238 40.7301 90.9576 40.3122 91.2548 39.9578C91.5519 39.6018 91.9004 39.3227 92.3031 39.1175C92.7044 38.9139 93.1388 38.8098 93.6019 38.8098C93.9519 38.8098 94.2732 38.8702 94.5689 38.9908C94.863 39.1115 95.1179 39.285 95.3306 39.5113C95.5433 39.739 95.7093 40.0181 95.8299 40.3485C95.9506 40.6788 96.0094 41.0544 96.0094 41.4768C96.0094 42.0153 95.9235 42.5252 95.753 43.0034C95.5825 43.4815 95.3487 43.8994 95.0516 44.2569C94.7544 44.6159 94.4059 44.898 94.0032 45.1046C93.6019 45.3113 93.1675 45.4139 92.7044 45.4139V45.4124ZM92.819 44.4515C93.1132 44.4515 93.3817 44.37 93.6246 44.2086C93.8674 44.0472 94.0741 43.8285 94.2445 43.5555C94.415 43.2809 94.5462 42.9656 94.6382 42.6081C94.7318 42.2506 94.7785 41.8765 94.7785 41.4828C94.7785 40.9051 94.6684 40.4767 94.4497 40.1931C94.231 39.911 93.9112 39.7692 93.4888 39.7692C93.1901 39.7692 92.9201 39.8507 92.6803 40.0121C92.4404 40.175 92.2337 40.3907 92.0633 40.6637C91.8928 40.9352 91.7616 41.2505 91.6681 41.608C91.5761 41.967 91.5293 42.3411 91.5293 42.7333C91.5293 43.302 91.6394 43.7304 91.8581 44.0185C92.0769 44.3067 92.3967 44.4515 92.819 44.4515ZM95.6429 36.1504L94.0831 37.781C94.0153 37.8534 93.9534 37.9017 93.8946 37.9289C93.8357 37.956 93.7633 37.9696 93.6789 37.9696H92.997L94.0213 36.4415C94.0846 36.3435 94.1525 36.2726 94.2264 36.2243C94.2988 36.1745 94.4044 36.1519 94.5387 36.1519H95.6444L95.6429 36.1504Z" fill="#363636"/>
<path d="M98.5795 40.4407C98.9204 39.9021 99.302 39.4964 99.7244 39.2218C100.145 38.9488 100.58 38.8115 101.025 38.8115C101.293 38.8115 101.535 38.8658 101.741 38.9729C101.951 39.08 102.12 39.2384 102.251 39.4436C102.381 39.6502 102.471 39.9052 102.518 40.2053C102.568 40.507 102.568 40.851 102.517 41.2371L102.035 45.3251H100.804L101.289 41.2371C101.348 40.7529 101.319 40.3984 101.204 40.1737C101.087 39.9489 100.874 39.8358 100.563 39.8358C100.369 39.8358 100.171 39.8886 99.9688 39.9972C99.7651 40.1043 99.5705 40.2566 99.3835 40.4527C99.1964 40.6473 99.0215 40.8857 98.86 41.1632C98.6971 41.4408 98.5629 41.75 98.4512 42.0924L98.0922 45.3266H96.8613L97.6261 38.8945H98.2446C98.3804 38.8945 98.4829 38.9277 98.5553 38.9956C98.6247 39.0619 98.6624 39.1675 98.6624 39.3108L98.581 40.4422L98.5795 40.4407Z" fill="#363636"/>
<path d="M108.214 40.5483C108.374 40.2828 108.547 40.0445 108.733 39.8318C108.918 39.6191 109.113 39.4366 109.317 39.2857C109.52 39.1334 109.734 39.0172 109.958 38.9342C110.181 38.8528 110.409 38.8105 110.639 38.8105C111.178 38.8105 111.603 39.0082 111.913 39.4049C112.222 39.8001 112.377 40.3854 112.377 41.1607C112.377 41.5107 112.339 41.8576 112.266 42.2046C112.192 42.553 112.089 42.8849 111.956 43.2002C111.824 43.517 111.662 43.8096 111.472 44.0781C111.284 44.3481 111.072 44.5819 110.84 44.7795C110.609 44.9772 110.359 45.1325 110.092 45.2442C109.825 45.3558 109.543 45.4116 109.249 45.4116C108.954 45.4116 108.662 45.3528 108.408 45.2321C108.155 45.1114 107.939 44.944 107.757 44.7298L107.422 47.4767H106.223L107.265 38.8905H107.885C108.019 38.8905 108.122 38.9237 108.194 38.9916C108.267 39.0579 108.301 39.1635 108.301 39.3068L108.212 40.5453L108.214 40.5483ZM107.867 43.8911C108.022 44.0977 108.208 44.244 108.422 44.33C108.636 44.416 108.852 44.4598 109.068 44.4598C109.283 44.4598 109.478 44.416 109.665 44.327C109.852 44.238 110.024 44.1173 110.176 43.9635C110.33 43.8111 110.467 43.6301 110.59 43.4249C110.712 43.2183 110.814 42.998 110.9 42.7642C110.985 42.5304 111.048 42.286 111.092 42.0341C111.136 41.7822 111.158 41.5303 111.158 41.2829C111.158 40.7957 111.072 40.4246 110.899 40.1742C110.725 39.9238 110.483 39.7986 110.166 39.7986C109.971 39.7986 109.775 39.8604 109.574 39.9841C109.374 40.1078 109.184 40.2783 109 40.497C108.817 40.7142 108.645 40.9722 108.485 41.2709C108.325 41.5695 108.187 41.8969 108.069 42.2499L107.867 43.8926V43.8911Z" fill="#363636"/>
<path d="M117.134 43.7201C116.987 43.9765 116.828 44.2088 116.657 44.417C116.487 44.6252 116.304 44.8047 116.114 44.951C115.923 45.0988 115.72 45.2119 115.508 45.2919C115.295 45.3718 115.075 45.4126 114.848 45.4126C114.595 45.4126 114.364 45.3628 114.156 45.2647C113.948 45.1652 113.768 45.0204 113.619 44.8288C113.47 44.6372 113.354 44.4004 113.272 44.1183C113.191 43.8362 113.148 43.5119 113.148 43.1453C113.148 42.7788 113.195 42.3941 113.29 42.0306C113.385 41.6671 113.521 41.3246 113.698 41.0048C113.874 40.685 114.085 40.3894 114.333 40.1209C114.578 39.8509 114.855 39.6201 115.158 39.4255C115.461 39.2309 115.788 39.0815 116.14 38.9729C116.493 38.8658 116.859 38.8115 117.242 38.8115C117.52 38.8115 117.793 38.8342 118.06 38.8779C118.329 38.9216 118.592 38.9986 118.853 39.1087L118.083 45.3251H117.437C117.277 45.3251 117.17 45.2844 117.116 45.2014C117.06 45.1199 117.034 45.0189 117.034 44.9012L117.135 43.7201H117.134ZM117.564 39.7468C117.401 39.7211 117.238 39.7091 117.078 39.7091C116.702 39.7091 116.351 39.7966 116.024 39.9715C115.695 40.1465 115.41 40.3818 115.167 40.676C114.924 40.9701 114.734 41.3126 114.592 41.7017C114.452 42.0924 114.381 42.4997 114.381 42.9251C114.381 43.4169 114.461 43.7849 114.621 44.0278C114.781 44.2707 115.011 44.3913 115.316 44.3913C115.514 44.3913 115.708 44.3265 115.9 44.1983C116.091 44.07 116.272 43.8935 116.443 43.6673C116.613 43.4425 116.772 43.177 116.917 42.8678C117.061 42.5601 117.188 42.2252 117.298 41.8632L117.564 39.7468Z" fill="#363636"/>
<path d="M121.406 40.6373C121.575 40.2873 121.756 39.9856 121.949 39.7307C122.143 39.4758 122.345 39.2752 122.555 39.1303C122.766 38.9855 122.984 38.8965 123.208 38.8649C123.435 38.8332 123.661 38.8679 123.889 38.9689L123.667 40.1576C123.124 39.9374 122.649 40.0113 122.24 40.3778C121.831 40.7444 121.501 41.4217 121.247 42.4113L120.894 45.3241H119.688L120.464 38.892H121.084C121.219 38.892 121.321 38.9252 121.394 38.9931C121.466 39.0594 121.501 39.165 121.501 39.3083L121.406 40.6358V40.6373Z" fill="#363636"/>
<path d="M127.665 43.7201C127.519 43.9765 127.359 44.2088 127.188 44.417C127.018 44.6252 126.835 44.8047 126.645 44.951C126.454 45.0988 126.252 45.2119 126.039 45.2919C125.826 45.3718 125.606 45.4126 125.38 45.4126C125.128 45.4126 124.896 45.3628 124.687 45.2647C124.479 45.1652 124.3 45.0204 124.15 44.8288C124.001 44.6372 123.885 44.4004 123.803 44.1183C123.722 43.8362 123.68 43.5119 123.68 43.1453C123.68 42.7788 123.726 42.3941 123.821 42.0306C123.917 41.6671 124.052 41.3246 124.229 41.0048C124.405 40.685 124.616 40.3894 124.864 40.1209C125.11 39.8509 125.386 39.6201 125.689 39.4255C125.992 39.2309 126.319 39.0815 126.671 38.9729C127.024 38.8658 127.391 38.8115 127.774 38.8115C128.051 38.8115 128.324 38.8342 128.591 38.8779C128.86 38.9216 129.124 38.9986 129.385 39.1087L128.614 45.3251H127.968C127.808 45.3251 127.701 45.2844 127.647 45.2014C127.591 45.1199 127.565 45.0189 127.565 44.9012L127.667 43.7201H127.665ZM128.095 39.7468C127.932 39.7211 127.769 39.7091 127.609 39.7091C127.234 39.7091 126.882 39.7966 126.555 39.9715C126.226 40.1465 125.941 40.3818 125.698 40.676C125.455 40.9701 125.265 41.3126 125.123 41.7017C124.983 42.0924 124.912 42.4997 124.912 42.9251C124.912 43.4169 124.992 43.7849 125.152 44.0278C125.312 44.2707 125.543 44.3913 125.847 44.3913C126.045 44.3913 126.24 44.3265 126.431 44.1983C126.623 44.07 126.804 43.8935 126.974 43.6673C127.145 43.4425 127.303 43.177 127.448 42.8678C127.593 42.5601 127.719 42.2252 127.829 41.8632L128.095 39.7468Z" fill="#363636"/>
<path d="M134.843 40.6373C135.012 40.2873 135.193 39.9856 135.386 39.7307C135.581 39.4758 135.783 39.2752 135.993 39.1303C136.204 38.9855 136.421 38.8965 136.646 38.8649C136.872 38.8332 137.098 38.8679 137.326 38.9689L137.104 40.1576C136.561 39.9374 136.086 40.0113 135.677 40.3778C135.269 40.7444 134.938 41.4217 134.685 42.4113L134.332 45.3241H133.125L133.902 38.892H134.522C134.656 38.892 134.759 38.9252 134.831 38.9931C134.903 39.0594 134.938 39.165 134.938 39.3083L134.843 40.6358V40.6373Z" fill="#363636"/>
<path d="M142.384 44.1368C142.166 44.36 141.953 44.5516 141.746 44.7115C141.54 44.8714 141.328 45.0041 141.111 45.1097C140.894 45.2138 140.668 45.2923 140.432 45.3405C140.196 45.3888 139.939 45.4129 139.662 45.4129C139.296 45.4129 138.965 45.3511 138.667 45.2274C138.37 45.1037 138.118 44.9257 137.913 44.6994C137.707 44.4732 137.548 44.1971 137.435 43.8743C137.323 43.553 137.268 43.191 137.268 42.7912C137.268 42.4594 137.302 42.1305 137.372 41.8032C137.441 41.4758 137.544 41.1681 137.678 40.874C137.812 40.5813 137.977 40.3083 138.171 40.0549C138.364 39.8029 138.586 39.5842 138.835 39.4002C139.082 39.2177 139.357 39.0744 139.655 38.9703C139.954 38.8677 140.277 38.8164 140.622 38.8164C140.968 38.8164 141.235 38.8632 141.476 38.9552C141.716 39.0472 141.915 39.1664 142.074 39.3112C142.232 39.4575 142.348 39.6189 142.424 39.7954C142.499 39.9719 142.538 40.1454 142.538 40.3128C142.538 40.5919 142.482 40.8468 142.368 41.0806C142.253 41.3144 142.046 41.5241 141.745 41.7127C141.443 41.8997 141.03 42.0626 140.503 42.2014C139.977 42.3417 139.301 42.4518 138.476 42.5363C138.471 42.574 138.47 42.6117 138.47 42.6509V42.7656C138.47 43.3177 138.589 43.734 138.826 44.0161C139.064 44.2982 139.423 44.44 139.903 44.44C140.1 44.44 140.278 44.4189 140.434 44.3796C140.589 44.3404 140.728 44.2906 140.847 44.2318C140.968 44.173 141.073 44.1081 141.165 44.0387C141.257 43.9693 141.343 43.9045 141.422 43.8471C141.5 43.7883 141.573 43.7385 141.641 43.6978C141.707 43.6571 141.778 43.639 141.849 43.639C141.896 43.639 141.936 43.6495 141.972 43.6737C142.007 43.6963 142.042 43.725 142.077 43.7597L142.386 44.1383L142.384 44.1368ZM140.553 39.6943C140.301 39.6943 140.069 39.7471 139.858 39.8497C139.646 39.9538 139.456 40.0956 139.289 40.2796C139.12 40.4637 138.978 40.6779 138.859 40.9252C138.741 41.1711 138.648 41.4396 138.581 41.7308C139.2 41.6508 139.696 41.5618 140.069 41.4653C140.441 41.3672 140.73 41.2616 140.932 41.1455C141.134 41.0293 141.268 40.9056 141.333 40.7759C141.399 40.6462 141.431 40.5074 141.431 40.3596C141.431 40.2887 141.414 40.2132 141.384 40.1363C141.353 40.0579 141.303 39.987 141.232 39.9221C141.162 39.8557 141.072 39.8029 140.96 39.7607C140.849 39.7185 140.713 39.6974 140.553 39.6974V39.6943Z" fill="#363636"/>
<path d="M147.515 39.9792C147.478 40.035 147.44 40.0742 147.404 40.0968C147.367 40.121 147.322 40.1315 147.268 40.1315C147.205 40.1315 147.138 40.1074 147.069 40.0621C146.999 40.0154 146.916 39.9656 146.817 39.9113C146.719 39.8555 146.6 39.8057 146.461 39.7589C146.321 39.7122 146.153 39.6895 145.956 39.6895C145.77 39.6895 145.603 39.7152 145.456 39.765C145.308 39.8147 145.182 39.8841 145.075 39.9701C144.967 40.0561 144.884 40.1587 144.829 40.2763C144.771 40.394 144.743 40.5192 144.743 40.6489C144.743 40.7922 144.78 40.9129 144.856 41.0094C144.931 41.106 145.031 41.192 145.153 41.2659C145.275 41.3398 145.415 41.4062 145.574 41.465C145.731 41.5238 145.892 41.5857 146.057 41.6505C146.221 41.7169 146.382 41.7893 146.541 41.8678C146.698 41.9477 146.838 42.0458 146.96 42.1619C147.082 42.2781 147.18 42.4184 147.257 42.5813C147.333 42.7457 147.37 42.9418 147.37 43.1696C147.37 43.4682 147.312 43.7533 147.194 44.0249C147.076 44.2964 146.906 44.5362 146.686 44.7444C146.465 44.9526 146.198 45.1185 145.886 45.2407C145.574 45.3629 145.225 45.4232 144.838 45.4232C144.429 45.4232 144.064 45.3508 143.746 45.203C143.426 45.0567 143.166 44.8681 142.969 44.6418L143.272 44.1667C143.352 44.0445 143.461 43.9841 143.595 43.9841C143.667 43.9841 143.738 44.0143 143.806 44.0731C143.875 44.132 143.961 44.1968 144.062 44.2662C144.163 44.3356 144.289 44.4005 144.435 44.4578C144.583 44.5166 144.771 44.5468 145.004 44.5468C145.201 44.5468 145.379 44.5181 145.538 44.4578C145.695 44.399 145.829 44.3205 145.939 44.221C146.049 44.1214 146.132 44.0068 146.188 43.8755C146.245 43.7458 146.274 43.607 146.274 43.4592C146.274 43.3114 146.236 43.1726 146.159 43.0655C146.084 42.9584 145.984 42.8679 145.862 42.794C145.74 42.72 145.6 42.6537 145.443 42.5979C145.286 42.542 145.126 42.4817 144.963 42.4214C144.8 42.3595 144.64 42.2932 144.482 42.2192C144.325 42.1453 144.185 42.0518 144.062 41.9372C143.94 41.8225 143.842 41.6852 143.765 41.5238C143.69 41.3609 143.652 41.1648 143.652 40.9325C143.652 40.6595 143.706 40.394 143.815 40.1391C143.925 39.8841 144.082 39.6579 144.287 39.4603C144.492 39.2626 144.74 39.1043 145.032 38.9866C145.323 38.8689 145.655 38.8086 146.026 38.8086C146.423 38.8086 146.769 38.8735 147.066 39.0017C147.363 39.1299 147.618 39.3064 147.834 39.5296L147.518 39.9777L147.515 39.9792Z" fill="#363636"/>
<path d="M148.932 44.0856V43.9876C148.932 43.9469 148.935 43.8895 148.941 43.8141C148.947 43.7387 148.957 43.6376 148.972 43.5109C148.987 43.3842 149.005 43.2228 149.031 43.0237L149.416 39.9027H148.728C148.665 39.9027 148.613 39.8815 148.573 39.8363C148.532 39.7925 148.52 39.7247 148.532 39.6372L148.588 39.1379L149.568 38.9931L150.061 37.0788C150.083 37.0064 150.117 36.9521 150.165 36.9114C150.214 36.8706 150.274 36.8525 150.345 36.8525H151.003L150.731 39.0066H152.38L152.279 39.9027H150.623L150.244 42.9618C150.223 43.1338 150.206 43.2726 150.194 43.3782C150.181 43.4822 150.172 43.5667 150.165 43.6271C150.159 43.6889 150.155 43.7311 150.153 43.7568C150.152 43.7809 150.15 43.8005 150.15 43.8126C150.15 44.0102 150.199 44.1596 150.295 44.2621C150.392 44.3632 150.52 44.413 150.68 44.413C150.785 44.413 150.877 44.3979 150.954 44.3692C151.033 44.3406 151.101 44.3074 151.16 44.2712C151.218 44.235 151.267 44.2018 151.307 44.1731C151.348 44.143 151.384 44.1279 151.419 44.1279C151.457 44.1279 151.487 44.1384 151.508 44.1565C151.529 44.1761 151.55 44.2063 151.571 44.2486L151.831 44.8429C151.617 45.0284 151.375 45.1702 151.111 45.2728C150.846 45.3739 150.579 45.4236 150.309 45.4236C149.888 45.4236 149.555 45.309 149.312 45.0797C149.067 44.8504 148.941 44.5186 148.933 44.0841L148.932 44.0856Z" fill="#363636"/>
<path d="M156.745 43.7201C156.599 43.9765 156.439 44.2088 156.268 44.417C156.098 44.6252 155.915 44.8047 155.725 44.951C155.534 45.0988 155.332 45.2119 155.119 45.2919C154.906 45.3718 154.686 45.4126 154.46 45.4126C154.206 45.4126 153.976 45.3628 153.767 45.2647C153.559 45.1652 153.38 45.0204 153.23 44.8288C153.081 44.6372 152.965 44.4004 152.883 44.1183C152.802 43.8362 152.76 43.5119 152.76 43.1453C152.76 42.7788 152.807 42.3941 152.902 42.0306C152.997 41.6671 153.132 41.3246 153.309 41.0048C153.485 40.685 153.697 40.3894 153.944 40.1209C154.19 39.8509 154.466 39.6201 154.769 39.4255C155.072 39.2309 155.4 39.0815 155.751 38.9729C156.104 38.8658 156.471 38.8115 156.854 38.8115C157.131 38.8115 157.404 38.8342 157.671 38.8779C157.94 38.9216 158.204 38.9986 158.465 39.1087L157.694 45.3251H157.048C156.888 45.3251 156.781 45.2844 156.727 45.2014C156.671 45.1199 156.646 45.0189 156.646 44.9012L156.747 43.7201H156.745ZM157.175 39.7468C157.012 39.7211 156.849 39.7091 156.689 39.7091C156.314 39.7091 155.962 39.7966 155.635 39.9715C155.306 40.1465 155.021 40.3818 154.778 40.676C154.535 40.9701 154.345 41.3126 154.203 41.7017C154.063 42.0924 153.992 42.4997 153.992 42.9251C153.992 43.4169 154.072 43.7849 154.232 44.0278C154.392 44.2707 154.623 44.3913 154.927 44.3913C155.125 44.3913 155.32 44.3265 155.511 44.1983C155.703 44.07 155.884 43.8935 156.054 43.6673C156.225 43.4425 156.383 43.177 156.528 42.8678C156.673 42.5601 156.799 42.2252 156.91 41.8632L157.175 39.7468Z" fill="#363636"/>
<path d="M165.186 38.9072L164.409 45.3257H163.797C163.497 45.3257 163.347 45.1794 163.347 44.8838L163.423 43.8354C163.089 44.3588 162.717 44.751 162.301 45.018C161.886 45.2835 161.459 45.4163 161.021 45.4163C160.753 45.4163 160.513 45.3635 160.305 45.2548C160.097 45.1477 159.926 44.9909 159.796 44.7842C159.667 44.5775 159.576 44.3241 159.528 44.0224C159.478 43.7207 159.478 43.3768 159.525 42.9891L160.011 38.9087H161.236L160.756 42.9891C160.697 43.4703 160.724 43.8233 160.837 44.0511C160.952 44.2774 161.166 44.392 161.481 44.392C161.671 44.392 161.865 44.3392 162.062 44.2366C162.26 44.1341 162.453 43.9877 162.637 43.7977C162.822 43.6091 162.994 43.3783 163.151 43.1098C163.31 42.8413 163.445 42.5411 163.559 42.2138L163.949 38.9102H165.182L165.186 38.9072Z" fill="#363636"/>
<path d="M167.744 40.6373C167.912 40.2873 168.093 39.9856 168.287 39.7307C168.481 39.4758 168.683 39.2752 168.893 39.1303C169.104 38.9855 169.321 38.8965 169.546 38.8649C169.772 38.8332 169.999 38.8679 170.226 38.9689L170.005 40.1576C169.462 39.9374 168.987 40.0113 168.578 40.3778C168.169 40.7444 167.839 41.4217 167.585 42.4113L167.232 45.3241H166.025L166.802 38.892H167.422C167.556 38.892 167.659 38.9252 167.731 38.9931C167.804 39.0594 167.839 39.165 167.839 39.3083L167.744 40.6358V40.6373Z" fill="#363636"/>
<path d="M174.005 43.7201C173.859 43.9765 173.699 44.2088 173.528 44.417C173.358 44.6252 173.175 44.8047 172.985 44.951C172.794 45.0988 172.591 45.2119 172.379 45.2919C172.166 45.3718 171.946 45.4126 171.72 45.4126C171.466 45.4126 171.235 45.3628 171.027 45.2647C170.819 45.1652 170.64 45.0204 170.49 44.8288C170.341 44.6372 170.225 44.4004 170.143 44.1183C170.062 43.8362 170.02 43.5119 170.02 43.1453C170.02 42.7788 170.066 42.3941 170.161 42.0306C170.256 41.6671 170.392 41.3246 170.569 41.0048C170.745 40.685 170.956 40.3894 171.204 40.1209C171.45 39.8509 171.726 39.6201 172.029 39.4255C172.332 39.2309 172.659 39.0815 173.011 38.9729C173.364 38.8658 173.73 38.8115 174.114 38.8115C174.391 38.8115 174.664 38.8342 174.931 38.8779C175.2 38.9216 175.464 38.9986 175.725 39.1087L174.954 45.3251H174.308C174.148 45.3251 174.041 45.2844 173.987 45.2014C173.931 45.1199 173.905 45.0189 173.905 44.9012L174.006 43.7201H174.005ZM174.435 39.7468C174.272 39.7211 174.109 39.7091 173.949 39.7091C173.573 39.7091 173.222 39.7966 172.895 39.9715C172.566 40.1465 172.281 40.3818 172.038 40.676C171.795 40.9701 171.605 41.3126 171.463 41.7017C171.323 42.0924 171.252 42.4997 171.252 42.9251C171.252 43.4169 171.332 43.7849 171.492 44.0278C171.652 44.2707 171.882 44.3913 172.187 44.3913C172.385 44.3913 172.579 44.3265 172.771 44.1983C172.963 44.07 173.144 43.8935 173.314 43.6673C173.484 43.4425 173.643 43.177 173.788 42.8678C173.932 42.5601 174.059 42.2252 174.169 41.8632L174.435 39.7468Z" fill="#363636"/>
<path d="M178.281 40.4407C178.624 39.9021 179.004 39.4964 179.426 39.2218C179.847 38.9488 180.28 38.8115 180.728 38.8115C180.996 38.8115 181.236 38.8658 181.444 38.9729C181.653 39.08 181.823 39.2384 181.953 39.4436C182.082 39.6502 182.173 39.9052 182.221 40.2053C182.271 40.507 182.269 40.851 182.218 41.2371L181.739 45.3251H180.508L180.993 41.2371C181.052 40.7529 181.023 40.3984 180.907 40.1737C180.791 39.9489 180.577 39.8358 180.266 39.8358C180.072 39.8358 179.874 39.8886 179.672 39.9972C179.47 40.1043 179.274 40.2566 179.088 40.4527C178.9 40.6473 178.726 40.8857 178.563 41.1632C178.4 41.4408 178.266 41.75 178.156 42.0924L177.797 45.3266H176.564L177.329 38.8945H177.948C178.083 38.8945 178.186 38.9277 178.258 38.9956C178.329 39.0619 178.366 39.1675 178.366 39.3108L178.284 40.4422L178.281 40.4407Z" fill="#363636"/>
<path d="M183.721 44.0856V43.9876C183.721 43.9469 183.724 43.8895 183.73 43.8141C183.736 43.7387 183.746 43.6376 183.761 43.5109C183.776 43.3842 183.795 43.2228 183.82 43.0237L184.205 39.9027H183.517C183.454 39.9027 183.402 39.8815 183.362 39.8363C183.321 39.7925 183.309 39.7247 183.321 39.6372L183.377 39.1379L184.357 38.9931L184.85 37.0788C184.872 37.0064 184.906 36.9521 184.955 36.9114C185.003 36.8706 185.063 36.8525 185.134 36.8525H185.792L185.52 39.0066H187.169L187.068 39.9027H185.412L185.033 42.9618C185.012 43.1338 184.995 43.2726 184.983 43.3782C184.97 43.4822 184.961 43.5667 184.955 43.6271C184.948 43.6889 184.944 43.7311 184.942 43.7568C184.941 43.7809 184.939 43.8005 184.939 43.8126C184.939 44.0102 184.988 44.1596 185.084 44.2621C185.181 44.3632 185.309 44.413 185.469 44.413C185.575 44.413 185.667 44.3979 185.743 44.3692C185.822 44.3406 185.89 44.3074 185.949 44.2712C186.007 44.235 186.056 44.2018 186.096 44.1731C186.137 44.143 186.173 44.1279 186.208 44.1279C186.246 44.1279 186.276 44.1384 186.297 44.1565C186.318 44.1761 186.339 44.2063 186.36 44.2486L186.62 44.8429C186.406 45.0284 186.164 45.1702 185.9 45.2728C185.635 45.3739 185.368 45.4236 185.098 45.4236C184.677 45.4236 184.344 45.309 184.101 45.0797C183.856 44.8504 183.73 44.5186 183.722 44.0841L183.721 44.0856Z" fill="#363636"/>
<path d="M192.699 44.1368C192.48 44.36 192.267 44.5516 192.061 44.7115C191.854 44.8714 191.643 45.0041 191.426 45.1097C191.208 45.2138 190.982 45.2923 190.747 45.3405C190.51 45.3888 190.254 45.4129 189.976 45.4129C189.611 45.4129 189.279 45.3511 188.982 45.2274C188.685 45.1037 188.433 44.9257 188.228 44.6994C188.021 44.4732 187.863 44.1971 187.749 43.8743C187.638 43.553 187.582 43.191 187.582 42.7912C187.582 42.4594 187.617 42.1305 187.686 41.8032C187.755 41.4758 187.858 41.1681 187.992 40.874C188.127 40.5813 188.291 40.3083 188.486 40.0549C188.679 39.8029 188.9 39.5842 189.149 39.4002C189.397 39.2177 189.671 39.0744 189.97 38.9703C190.269 38.8677 190.591 38.8164 190.937 38.8164C191.282 38.8164 191.549 38.8632 191.791 38.9552C192.031 39.0472 192.23 39.1664 192.388 39.3112C192.546 39.4575 192.663 39.6189 192.738 39.7954C192.813 39.9719 192.853 40.1454 192.853 40.3128C192.853 40.5919 192.797 40.8468 192.682 41.0806C192.568 41.3144 192.361 41.5241 192.059 41.7127C191.757 41.8997 191.344 42.0626 190.818 42.2014C190.291 42.3417 189.615 42.4518 188.79 42.5363C188.786 42.574 188.784 42.6117 188.784 42.6509V42.7656C188.784 43.3177 188.903 43.734 189.14 44.0161C189.379 44.2982 189.738 44.44 190.217 44.44C190.415 44.44 190.593 44.4189 190.748 44.3796C190.904 44.3404 191.042 44.2906 191.162 44.2318C191.282 44.173 191.388 44.1081 191.48 44.0387C191.572 43.9693 191.658 43.9045 191.736 43.8471C191.815 43.7883 191.887 43.7385 191.955 43.6978C192.021 43.6571 192.092 43.639 192.163 43.639C192.21 43.639 192.251 43.6495 192.287 43.6737C192.322 43.6963 192.356 43.725 192.391 43.7597L192.7 44.1383L192.699 44.1368ZM190.867 39.6943C190.616 39.6943 190.383 39.7471 190.172 39.8497C189.961 39.9538 189.771 40.0956 189.603 40.2796C189.434 40.4637 189.293 40.6779 189.173 40.9252C189.056 41.1711 188.962 41.4396 188.896 41.7308C189.514 41.6508 190.011 41.5618 190.383 41.4653C190.756 41.3672 191.044 41.2616 191.246 41.1455C191.448 41.0293 191.582 40.9056 191.647 40.7759C191.714 40.6462 191.745 40.5074 191.745 40.3596C191.745 40.2887 191.729 40.2132 191.699 40.1363C191.667 40.0579 191.617 39.987 191.546 39.9221C191.477 39.8557 191.386 39.8029 191.275 39.7607C191.163 39.7185 191.027 39.6974 190.867 39.6974V39.6943Z" fill="#363636"/>
<path d="M197.829 39.9792C197.792 40.035 197.754 40.0742 197.718 40.0968C197.681 40.121 197.636 40.1315 197.582 40.1315C197.519 40.1315 197.452 40.1074 197.383 40.0621C197.313 40.0154 197.23 39.9656 197.129 39.9113C197.031 39.8555 196.912 39.8057 196.773 39.7589C196.633 39.7122 196.466 39.6895 196.268 39.6895C196.082 39.6895 195.915 39.7152 195.769 39.765C195.621 39.8147 195.494 39.8841 195.387 39.9701C195.28 40.0561 195.197 40.1587 195.141 40.2763C195.084 40.394 195.055 40.5192 195.055 40.6489C195.055 40.7922 195.093 40.9129 195.168 41.0094C195.244 41.106 195.343 41.192 195.466 41.2659C195.588 41.3398 195.728 41.4062 195.886 41.465C196.043 41.5238 196.205 41.5857 196.369 41.6505C196.534 41.7169 196.695 41.7893 196.853 41.8678C197.01 41.9477 197.15 42.0458 197.273 42.1619C197.395 42.2781 197.493 42.4184 197.57 42.5813C197.645 42.7457 197.683 42.9418 197.683 43.1696C197.683 43.4682 197.624 43.7533 197.506 44.0249C197.389 44.2964 197.218 44.5362 196.998 44.7444C196.778 44.9526 196.511 45.1185 196.199 45.2407C195.886 45.3629 195.538 45.4232 195.15 45.4232C194.741 45.4232 194.376 45.3508 194.058 45.203C193.738 45.0567 193.479 44.8681 193.281 44.6418L193.584 44.1667C193.664 44.0445 193.773 43.9841 193.907 43.9841C193.98 43.9841 194.051 44.0143 194.118 44.0731C194.188 44.132 194.274 44.1968 194.375 44.2662C194.476 44.3356 194.601 44.4005 194.747 44.4578C194.895 44.5166 195.084 44.5468 195.316 44.5468C195.514 44.5468 195.692 44.5181 195.85 44.4578C196.007 44.399 196.141 44.3205 196.251 44.221C196.362 44.1214 196.445 44.0068 196.5 43.8755C196.558 43.7458 196.586 43.607 196.586 43.4592C196.586 43.3114 196.549 43.1726 196.472 43.0655C196.396 42.9584 196.297 42.8679 196.174 42.794C196.052 42.72 195.912 42.6537 195.755 42.5979C195.598 42.542 195.438 42.4817 195.275 42.4214C195.113 42.3595 194.953 42.2932 194.794 42.2192C194.637 42.1453 194.497 42.0518 194.375 41.9372C194.253 41.8225 194.155 41.6852 194.078 41.5238C194.002 41.3609 193.965 41.1648 193.965 40.9325C193.965 40.6595 194.019 40.394 194.127 40.1391C194.238 39.8841 194.394 39.6579 194.6 39.4603C194.803 39.2626 195.052 39.1043 195.345 38.9866C195.636 38.8689 195.968 38.8086 196.339 38.8086C196.736 38.8086 197.081 38.8735 197.378 39.0017C197.675 39.1299 197.93 39.3064 198.146 39.5296L197.831 39.9777L197.829 39.9792Z" fill="#363636"/>
</svg>
